<?xml version="1.0" encoding="UTF-8"?>
<!DOCTYPE svg PUBLIC "-//W3C//DTD SVG 1.1//EN" "http://www.w3.org/Graphics/SVG/1.1/DTD/svg11.dtd">
<!-- Creator: CorelDRAW X8 -->
<?xml-stylesheet href="jumbotron banner.css" type="text/css"?>
<svg xmlns="http://www.w3.org/2000/svg" xml:space="preserve" width="1200px" height="400px" version="1.1" style="shape-rendering:geometricPrecision; text-rendering:geometricPrecision; image-rendering:optimizeQuality; fill-rule:evenodd; clip-rule:evenodd"
viewBox="0 0 1200 400"
 xmlns:xlink="http://www.w3.org/1999/xlink">
 <g id="Layer_x0020_1">
  <metadata id="CorelCorpID_0Corel-Layer"/>
  <g id="_2418914521920">
   <path class="fil0" d="M93 362c-4,1 -8,2 -12,2 -3,-14 -5,-29 -8,-43 5,-1 10,-2 15,-2 2,14 4,29 5,43zm82 8c0,0 0,0 -1,-1 10,-11 20,-22 29,-33 2,1 3,3 4,4 -10,10 -21,20 -32,30zm-6 -4c-1,0 -3,-1 -4,-1 0,0 0,0 0,0 6,-14 11,-27 17,-41 0,0 0,0 0,0 1,1 3,1 4,2 -6,13 -12,27 -17,40zm-9 -3c-2,0 -3,0 -4,-1 3,-14 6,-28 9,-43 2,1 3,1 5,1 -3,15 -7,29 -10,43zm-12 -2c-2,0 -4,0 -5,0 1,-15 2,-30 3,-44 2,0 5,0 7,0 -1,15 -3,30 -5,44zm-16 -1c-2,0 -4,0 -7,0 0,-15 0,-29 0,-44 3,0 6,0 8,0 0,15 0,29 -1,44zm-17 0c-4,1 -7,1 -11,1 0,0 0,0 -1,0 -1,-14 -2,-29 -4,-44 0,0 1,0 1,0 4,0 8,0 12,-1 1,15 2,30 3,44zm-43 6c-5,1 -9,2 -14,4 -4,-14 -8,-29 -13,-43 6,-1 12,-3 18,-4 3,14 6,29 9,43zm-19 5c-3,1 -7,3 -10,4 -7,-13 -14,-26 -21,-38 6,-3 11,-6 17,-8 5,14 9,28 14,42z"/>
  </g>
  <path class="fil1" d="M33 356c30,-16 108,-25 141,-11 7,2 12,5 17,10"/>
  <g id="_2419134252368">
   <path class="fil2" d="M107 264c1,-1 3,-1 4,-1 4,14 8,29 12,43 -3,1 -5,1 -7,2 -3,-15 -6,-30 -9,-44zm-40 -2c0,0 0,0 1,0 2,1 4,1 7,2 0,0 0,0 0,0 -6,14 -12,28 -17,42 0,0 -1,0 -1,0 3,1 5,1 7,1 0,0 -1,0 -1,0 1,-15 3,-30 4,-45zm10 3c0,0 0,0 1,0 -4,15 -7,29 -10,44 0,0 -1,0 -2,0 4,-15 7,-30 11,-44zm3 0c1,0 1,1 2,1 -1,15 -3,30 -4,45 -1,0 -2,-1 -3,-1 2,-15 4,-30 5,-45zm5 1c1,0 2,0 3,0 0,15 0,30 0,45 -1,0 -3,0 -4,0 1,-15 1,-30 1,-45zm7 0c1,0 2,0 3,-1 1,16 2,31 3,46 -1,0 -2,0 -4,0 -1,-15 -1,-30 -2,-45zm7 -1c0,0 0,0 0,0 1,0 3,0 4,-1 3,15 5,30 8,45 -2,0 -4,1 -6,1 0,0 0,0 0,0 -2,-15 -4,-30 -6,-45zm15 -3c2,-1 4,-1 6,-2 5,14 11,28 16,42 -3,1 -6,2 -8,3 -5,-14 -9,-29 -14,-43zm7 -3c1,0 3,-1 4,-2 8,13 15,26 23,39 -3,2 -6,3 -9,5 -6,-14 -12,-28 -18,-42z"/>
  </g>
  <path class="fil1" d="M136 277c-16,10 -52,16 -70,8l-1 0"/>
  <g id="_2419134277424">
   <path class="fil0" d="M242 37c0,2 2,1 3,0 0,0 1,-1 1,-2 0,-1 1,-1 0,-2 0,-1 0,0 -1,-1 0,0 0,-2 -1,0 0,0 0,3 -1,3 0,-1 -1,0 0,1 0,0 0,1 -1,1zm-47 99c0,0 0,1 0,1 1,0 1,1 1,0 0,-1 -1,-2 -1,-1 0,0 0,1 0,1 1,1 1,2 1,3 0,0 0,0 0,0 0,0 0,1 0,2 0,-1 0,-1 0,-1 0,0 0,1 0,1 2,6 3,15 3,14 -1,-4 -2,-9 -3,-14 0,-3 -1,-6 -2,-9 0,-1 1,2 1,3zm20 23l-3 8c0,-3 2,-11 4,-13 2,-3 3,-5 5,-7 -1,1 -2,3 -2,4zm21 -23c1,-4 3,-11 7,-13 -2,4 -5,8 -7,13zm-43 14c0,0 1,3 0,1 0,-1 -1,-4 0,-1zm108 53c5,-12 10,-23 15,-35 2,-6 5,-13 5,-20 -1,-6 -2,2 -3,4 0,2 -2,14 -4,13 0,0 -1,-1 -1,-1 -4,13 -8,26 -12,39zm7 -37c0,2 1,0 1,-1 1,0 1,0 1,-1 0,0 0,0 -1,0 0,-1 0,-1 0,1 0,0 -1,0 -1,0 0,0 0,0 0,0 0,1 0,1 0,1zm-34 -78c-2,-1 -1,-5 0,-7 0,-1 3,-5 5,-4 2,1 1,5 0,6 0,2 -3,6 -5,5zm-59 -3c1,0 1,0 2,0 3,1 9,2 11,5 1,3 -10,-7 -11,-8 0,-1 -2,-1 -2,-2 0,0 0,0 0,0 -2,-4 -6,-4 -9,0 -2,4 -3,10 -1,14 2,5 5,3 8,0 1,-3 2,-6 2,-9zm113 41c0,-3 1,-3 1,0 -1,3 -2,3 -1,0zm-13 -32c-1,0 0,-4 1,-4 1,0 0,5 -1,4zm-99 3c1,-2 2,2 1,5 -1,0 -2,1 -2,0 0,-2 0,-4 1,-5zm107 62c3,-7 3,-20 6,-22 6,0 1,14 0,18 0,6 3,21 -2,23 -9,0 -8,-12 -4,-19zm-60 45c0,2 0,3 2,3 0,0 0,0 0,0 1,-1 2,-1 2,-2 1,-1 2,-1 2,-3 0,-1 0,-1 -1,-2 0,-1 1,-3 0,-2 -1,1 -2,4 -3,3 0,0 -1,0 -1,1 0,1 0,2 -1,2z"/>
  </g>
  <path class="fil1" d="M184 101c35,-11 105,31 145,38 4,1 4,3 10,4"/>
  <g id="_2419134266192">
   <path class="fil0" d="M546 350c-2,0 -2,7 -2,9 0,1 1,2 2,3 1,0 1,3 2,0 1,-2 1,-3 2,-5 1,-2 3,-3 1,-4 -1,-2 -3,0 -2,-2 0,-1 0,-4 -1,-2 0,0 -1,1 -2,1zm-84 -156c-1,1 -1,1 -1,1 0,2 -1,16 0,17 1,0 1,-11 1,-13 -1,-1 -1,-3 -2,-4 -1,0 -2,0 -3,-1 0,1 1,2 1,3 0,1 0,3 -2,3 0,-2 0,-4 1,-6 -1,-1 -2,-2 -2,-3 -6,1 -16,3 -14,3 3,0 10,-3 14,-4 0,-3 7,-5 9,-2 1,2 0,5 -2,6zm-36 153c-3,-2 -15,-9 -14,-12 5,-3 10,0 13,5 1,4 2,8 3,11 -1,-1 -1,-3 -2,-4zm30 28c-5,4 -10,6 -15,0 5,1 11,2 15,0zm-1 -188c-1,0 -4,0 -1,0 0,-1 3,-1 1,0zm136 51c2,-6 4,-11 7,-17 3,-7 6,-14 10,-21 4,-8 10,-14 1,-20 -7,-5 -7,-3 -7,4 1,7 4,14 -3,14 -1,0 -2,0 -2,0 -2,-1 -3,-1 -5,-1 0,14 0,27 -1,41zm-12 -36c0,1 3,-1 3,-2 0,-1 1,-1 0,-1 -1,0 -1,0 -2,0 -1,0 -1,-1 -1,1 1,0 -2,1 -1,1 0,0 0,0 0,0 0,0 1,0 1,1zm-179 107c-1,3 -3,7 -6,9 -1,0 -1,1 -3,0 -1,0 -1,-1 -2,-2 -2,-3 -1,-7 0,-11 1,-3 4,-10 9,-9 4,2 3,10 2,13zm113 -13c-2,12 -4,23 -8,35 -1,4 -4,12 -6,15 -3,6 4,-12 5,-15 6,-13 10,-26 14,-39 1,0 1,0 1,-1 4,-5 6,-16 2,-23 -3,-6 -10,-5 -14,1 -4,5 -6,15 -2,22 1,4 4,6 8,5zm108 -139c1,-3 8,-3 8,0 0,3 -8,3 -8,0zm-136 5c-3,3 -6,-1 -3,-4 4,-3 7,0 3,4zm15 140c2,4 -3,11 -5,6 -1,-2 -1,-5 1,-6 1,-2 3,-2 4,0zm137 -111c-1,-3 -12,-21 -4,-23 2,-1 5,0 7,2 7,4 11,8 14,15 1,1 1,1 1,2 8,13 -7,16 -4,22 1,2 0,0 -2,-2 -3,-5 -7,-10 -11,-15 0,-1 0,-1 -1,-1zm-87 77c2,3 4,-1 5,-3 0,0 0,0 1,0 0,-2 0,-3 0,-4 -1,-2 0,-3 -2,-3 -2,0 -1,0 -3,1 -2,1 -4,-1 -3,1 0,2 2,4 1,4 -1,1 -2,3 -1,3 1,0 2,0 2,1z"/>
  </g>
  <path class="fil1" d="M495 174c16,54 -31,282 -59,200 -19,-54 46,-149 86,-180 23,-18 126,-21 143,-9"/>
  <g id="_2419134266864">
   <path class="fil2" d="M867 133c-1,2 0,2 1,1 1,0 2,-1 2,-1 1,-1 1,-1 2,-2 0,-1 -1,-1 -1,-1 0,-1 1,-2 -1,-1 0,1 -1,3 -1,2 -1,0 -1,1 -1,1 0,0 -1,1 -1,1zm-77 75c0,0 0,1 0,1 -1,0 -1,1 0,0 0,0 0,-2 0,-1 0,1 0,1 -1,1 0,1 -1,2 -1,3 0,0 0,0 0,0 0,-1 0,1 -1,1 0,0 1,0 1,-1 0,1 -1,2 -1,2 -2,6 -6,14 -6,13 2,-4 4,-9 7,-13 1,-1 3,-6 3,-8 1,-2 -1,1 -1,2zm7 29l-6 6c0,-3 6,-9 8,-11 2,-2 5,-3 7,-4 -1,0 -2,1 -4,2zm28 -15c3,-3 7,-8 11,-9 -4,3 -7,6 -11,9zm-41 -1c-1,1 -1,3 0,1 0,-1 1,-3 0,-1zm69 75c9,-9 17,-19 26,-28 4,-4 10,-10 12,-16 2,-7 -3,1 -4,3 -1,1 -8,12 -9,10 0,0 0,-1 0,-2 -8,11 -16,22 -25,33zm20 -32c-1,2 1,0 1,0 1,-1 1,-1 1,-1 0,-1 0,0 0,-1 0,0 0,-1 -1,1 0,0 -1,0 -1,0 0,0 0,1 0,1 0,0 0,0 0,0zm2 -76c-2,-2 1,-6 2,-7 1,-1 4,-4 5,-3 2,1 -1,5 -1,6 -1,2 -4,5 -6,4zm-47 -18c3,2 7,5 7,9 0,3 -5,-12 -5,-13 0,0 0,0 0,0 1,-5 -2,-4 -4,-2 -3,3 -7,8 -8,12 -1,5 2,4 4,2 3,-2 5,-5 6,-8zm77 64c2,-3 3,-2 1,0 -2,3 -2,2 -1,0zm0 -33c-1,-1 2,-5 3,-4 1,0 -2,4 -3,4zm-82 -20c2,-2 1,2 -2,4 0,1 -1,1 -1,0 0,-1 2,-3 3,-4zm67 83c1,-2 1,-4 2,-6 1,-2 7,-13 9,-15 0,0 0,0 0,0 1,2 -3,13 -3,15 0,0 0,1 0,2 -1,15 12,21 1,23 -5,0 -8,-1 -10,-5 -1,-5 0,-10 1,-14zm-65 27c-1,1 -2,2 0,3 0,0 0,0 0,0 1,0 2,-1 3,-2 1,-1 1,0 2,-2 0,-1 0,-1 0,-2 1,-1 2,-3 0,-1 0,0 -2,2 -3,2 0,-1 0,0 -1,1 0,0 -1,1 -1,1z"/>
  </g>
  <path class="fil1" d="M804 174c18,7 94,75 102,74"/>
  <g id="_2419134266448">
   <path class="fil2" d="M589 195c-1,-2 -4,-1 -5,0 -1,0 -1,1 -1,2 0,1 -1,1 0,2 1,1 1,1 2,1 2,0 2,2 2,0 1,-1 0,-3 1,-3 1,0 2,0 1,-1 0,0 0,-1 0,-1zm51 -105c0,0 0,-1 -1,-1 0,0 0,0 0,0 0,0 0,-1 1,0 0,0 1,2 0,1 0,0 -1,-1 -1,-1 0,0 0,0 0,0 -1,0 -2,-1 -3,-1 0,0 1,0 1,0 0,0 0,0 0,0 0,0 -1,-1 -2,-1 0,0 0,0 1,0 0,0 0,1 0,1 0,-1 -2,-1 -2,-1 -5,-3 -14,-6 -13,-6 5,2 8,4 14,6 2,0 7,1 8,3 1,2 -2,0 -3,0zm-62 -12c1,-3 3,-16 5,-17 0,0 0,0 1,0 4,3 3,10 -2,14 0,0 0,0 0,0 -2,2 -4,5 -7,6 1,-1 2,-2 3,-3zm-34 24c-1,5 -3,11 -8,13 3,-4 5,-9 8,-13zm91 -17c-1,0 -2,-1 0,-1 1,0 2,2 0,1zm-142 37c5,-12 10,-25 15,-36 3,-7 8,-14 3,-21 -5,-5 -5,-2 -5,5 0,4 1,14 -3,13 -2,-1 -3,-1 -5,-2 -2,14 -3,27 -5,41zm-4 -38c0,2 2,1 2,-1 0,0 1,-1 0,-1 0,0 0,0 -1,0 -1,-1 -1,-2 -1,1 0,0 -1,0 -1,0 0,0 0,1 0,1 0,0 1,0 1,0zm-4 61c2,1 4,3 5,5 0,1 0,2 -1,3 0,1 -1,2 -1,3 -3,1 -5,1 -7,0 -4,-1 -6,-4 -5,-8 2,-3 6,-4 9,-3zm136 8c-7,0 -27,-1 -33,-5 -3,-2 26,7 36,9 0,0 0,0 0,0 5,4 13,3 16,-2 4,-4 2,-11 -3,-14 -4,-3 -11,-2 -14,2 -3,3 -4,6 -2,10zm-102 -110c0,-2 1,-3 2,-2 2,0 2,1 2,2 0,1 -1,2 -2,2 -1,0 -2,-1 -2,-2zm-77 -30c-4,0 -4,-4 0,-5 4,0 4,4 0,5zm173 127c-3,3 -7,-1 -4,-4 1,-1 3,-1 4,0 1,1 1,3 0,4zm-85 -63c-2,-4 -10,-21 -4,-23 4,-2 9,6 11,9 2,2 4,4 6,7 6,7 18,15 11,20 -6,3 -11,1 -17,-3 -3,-3 -5,-6 -7,-10zm-42 -59c0,0 1,-1 1,-2 3,2 6,6 8,10 1,1 2,2 2,3 1,2 2,4 3,6 4,9 5,17 5,27 0,1 0,6 0,8 -2,9 -4,17 -9,26 -4,8 -5,9 -1,-1 0,0 1,-3 2,-4 3,-10 4,-18 4,-29 -1,-9 -3,-15 -7,-23 0,0 0,-1 0,-1 -5,-6 -7,-5 -9,-11 -1,-4 0,-5 -1,-7 -1,0 -1,0 -1,0 0,0 1,1 2,0 0,-1 0,-2 1,-2z"/>
  </g>
  <path class="fil1" d="M677 92c-8,46 -54,36 -98,33 -51,-3 -102,-18 -141,-54 -25,-23 93,-1 109,-8"/>
  <g id="_2419134265072">
   <path class="fil0" d="M966 30c0,2 2,2 3,2 0,0 1,0 1,-1 1,0 1,-1 2,-2 0,-1 1,0 1,-2 -1,-1 -1,0 -2,-1 0,0 0,0 0,0 -1,-1 -1,-2 -2,-1 -1,1 -1,3 -2,3 0,0 -2,0 -1,1 0,0 0,1 0,1zm-103 73c0,0 0,0 0,1 1,0 5,2 5,2 1,-1 -2,-3 -4,-3 0,1 -1,1 -1,1 0,1 -1,2 -1,3 0,0 0,0 1,0 1,0 0,2 0,2 -1,-1 -1,-1 -2,-2 0,1 0,2 -1,2 -2,6 -4,14 -4,13 2,-4 3,-9 4,-13 0,-2 2,-8 2,-9 2,-2 1,2 1,3zm72 40c-1,2 -9,15 -10,14 -2,-4 2,-10 5,-12 3,-2 6,-4 9,-5 -2,1 -3,2 -4,3zm35 -16c1,-4 4,-10 9,-11 -3,3 -6,7 -9,11zm-110 -19c-1,0 -1,3 0,1 0,-1 0,-3 0,-1zm154 128c12,-3 25,-5 38,-7 7,-1 15,-1 18,-8 3,-7 0,-5 -6,-2 -3,2 -11,9 -13,4 0,-1 0,-3 -1,-4 -12,6 -24,11 -36,17zm29 -23c-1,1 1,2 3,2 0,-1 0,0 1,-1 0,-1 -1,-1 -1,-1 0,-1 1,-2 -1,-1 0,1 -1,0 -1,0 0,0 0,0 0,0 0,1 -1,1 -1,1zm-13 -119c-3,-2 -4,-6 -2,-9 2,-3 6,-3 9,-1 3,2 5,7 3,10 -3,2 -8,1 -10,0zm-105 -33c8,3 20,7 26,13 0,0 1,0 1,0 1,2 -1,1 -1,1 -9,-6 -18,-13 -27,-19 0,0 0,-1 0,-1 -2,-4 -8,-6 -12,-3 -4,3 -6,9 -4,14 2,4 7,6 12,3 3,-2 5,-5 5,-8zm169 155c3,-1 4,2 2,3 -3,2 -5,-2 -2,-3zm-5 -66c-2,-4 2,-6 4,-2 3,5 -1,7 -4,2zm-164 -76c4,-2 6,3 3,5 -2,1 -3,1 -4,-1 -1,-1 0,-3 1,-4zm143 165c3,-2 15,-15 19,-13 5,4 -7,14 -10,16 -8,5 -19,6 -21,8 -2,3 9,-7 12,-11zm-93 -45c-1,1 -2,1 -1,1 0,0 0,0 0,0 1,0 2,0 3,0 1,-1 1,0 2,-2 1,-1 1,0 1,-2 1,0 3,-2 1,-1 -1,0 -3,2 -3,2 0,0 -1,0 -1,0 -1,1 -1,1 -2,2z"/>
  </g>
  <path class="fil1" d="M869 66c17,4 131,51 141,62 23,27 15,3 40,51 5,8 30,55 32,63"/>
  <g id="_2419134265296">
   <path class="fil2" d="M664 202c2,1 2,-1 2,-3 0,-1 -1,-1 -2,-2 -1,0 -1,-1 -2,-1 -1,1 0,1 -1,2 -1,1 -2,0 -1,1 1,1 2,1 2,2 0,0 0,1 1,1 0,0 1,0 1,0zm58 107c0,0 0,1 0,1 1,-1 5,-5 5,-6 -1,-1 -4,2 -4,4 0,1 0,1 0,2 1,1 1,1 2,2 0,0 0,-1 0,-1 1,-2 3,0 3,0 -1,0 -2,1 -3,1 1,1 1,2 1,3 4,3 13,9 12,8 -3,-3 -10,-6 -13,-7 -2,1 -8,-3 -8,-6 0,-2 3,-1 5,-1zm51 -64c2,2 14,11 13,13 -5,2 -10,-3 -12,-7 -1,-3 -2,-7 -3,-10 1,2 2,3 2,4zm-9 -42c-4,-1 -7,-4 -9,-8 -1,-1 -1,-2 -1,-3 2,2 4,4 5,6 2,2 4,3 5,5zm-41 115c1,1 1,2 0,2 -2,-1 -2,-3 0,-2zm66 -284c-10,6 -21,13 -32,19 -5,3 -13,6 -16,13 -2,6 2,1 5,-1 2,-2 10,-11 12,-8 0,1 0,2 0,3 11,-9 21,-18 31,-26zm-24 27c1,-1 -1,-1 -2,0 -1,0 -1,0 -1,1 0,0 0,0 0,0 0,1 0,2 1,0 1,0 1,0 1,0 0,0 0,0 0,0 0,0 1,0 1,-1zm-36 85c-2,2 -5,2 -8,1 -2,-1 -4,-4 -3,-7 1,-2 5,-2 7,-1 2,1 5,4 4,7zm-38 97c3,-5 11,-18 15,-20 6,-3 -17,18 -19,20 -1,0 -1,0 -1,0 -5,1 -6,5 -4,9 2,4 8,8 13,7 5,-1 6,-6 4,-10 -2,-3 -4,-5 -8,-6zm30 -165c-2,2 -3,1 -1,-1 2,-2 4,-1 1,1zm32 64c4,3 2,7 -2,4 -4,-2 -1,-6 2,-4zm-49 104c-1,-3 4,-5 5,-1 1,1 0,2 -1,3 -2,0 -3,-1 -4,-2zm37 -195c-2,4 -9,16 -14,18 -2,-1 4,-15 5,-17 1,-4 5,-20 9,-21 7,1 2,16 0,20zm113 88c3,2 3,-3 3,-5 0,0 0,0 0,0 0,-1 0,-1 0,-1 1,-3 1,-5 -1,-8 -1,-2 0,-6 -2,-3 -2,3 -2,4 -3,7 -1,1 -1,2 -3,2 -1,0 0,1 0,2 2,2 4,2 3,3 0,1 -1,3 1,2 0,0 1,1 2,1z"/>
  </g>
  <path class="fil1" d="M688 292c21,-25 109,-179 97,-187 -40,-24 -44,-43 -59,-51"/>
 </g>
</svg>
