<?xml version="1.0" ?><svg id="Layer_1" style="enable-background:new 0 0 96 96;" version="1.1" viewBox="0 0 96 96" xml:space="preserve" xmlns="http://www.w3.org/2000/svg" xmlns:xlink="http://www.w3.org/1999/xlink"><style type="text/css">
	.st0{fill:none;stroke:#000000;stroke-width:4;stroke-miterlimit:10;}
</style><g><path d="M87,9v67.4L48.8,86.6c-0.1,0-0.4,0.1-0.8,0.1c-0.5,0-0.8,0-0.8-0.1L9,76.4V9h36.6h4.9H87 M90.6,3H50.4c-1.3,0-3.6,0-4.9,0   H5.4C4.1,3,3,4.1,3,5.4v73.1c0,1.3,1.1,2.7,2.4,3.1l40.3,10.7c0.7,0.2,1.5,0.3,2.4,0.3s1.7-0.1,2.4-0.3l40.3-10.7   c1.3-0.3,2.4-1.7,2.4-3.1V5.4C93,4.1,91.9,3,90.6,3L90.6,3z"/></g><line class="st0" x1="3" x2="93" y1="18" y2="18"/><g><path class="st0" d="M4,70l41.4,11.3c1.4,0.4,3.7,0.4,5.1,0L92,70"/></g><g><path d="M18.5,36h7.7c4.9,0,8.9,1.9,8.9,7.7c0,5.6-4,8.1-8.8,8.1h-2.8V60h-5V36z M26,47.6c2.8,0,4.1-1.3,4.1-3.8   c0-2.5-1.5-3.4-4.3-3.4h-2.3v7.3H26z"/><path d="M37,36h6v9h7v-9h6v24h-6V50h-7v10h-6V36z"/><path d="M60.9,36h7.7c4.9,0,8.9,1.9,8.9,7.7c0,5.6-4,8.1-8.8,8.1H66V60h-5.1V36z M68.4,47.6c2.8,0,4.1-1.3,4.1-3.8   c0-2.5-1.5-3.4-4.3-3.4H66v7.3H68.4z"/></g></svg>